Plot

In the 1980s, college student Samantha Hughes takes a strange babysitting job that coincides
with a full lunar eclipse. She slowly realizes her clients harbor a terrifying secret; they
plan to use her in a satanic ritual.

Runtime ..........: 1h 35mn
File Size ........: 949 MiB
Resolution .......: 704x396
IMDb URL .........: http://www.imdb.com/title/tt1172994/
Language .........: English
Video
ID : 0
Format : MPEG-4 Visual
Format profile : Advanced Simple@L5
Format settings, BVOP : Yes
Format settings, QPel : No
Format settings, GMC : No warppoints
Format settings, Matrix : Default (H.263)
Codec ID : XVID
Codec ID/Hint : XviD
Duration : 1h 35mn
Bit rate : 941 Kbps
Width : 704 pixels
Height : 396 pixels
Display aspect ratio : 16:9
Frame rate : 23.976 fps
Color space : YUV
Chroma subsampling : 4:2:0
Bit depth : 8 bits
Scan type : Progressive
Compression mode : Lossy
Bits/(Pixel*Frame) : 0.141
Stream size : 640 MiB (68%)
Writing library : XviD 1.2.1 (UTC 2008-12-04)

Audio
ID : 1
Format : AC-3
Format/Info : Audio Coding 3
Mode extension : CM (complete main)
Codec ID : 2000
Duration : 1h 35mn
Bit rate mode : Constant
Bit rate : 448 Kbps
Channel(s) : 6 channels
Channel positions : Front: L C R, Side: L R, LFE
Sampling rate : 48.0 KHz
Bit depth : 16 bits
Compression mode : Lossy
Video delay : 42ms
Stream size : 305 MiB (32%)
Alignment : Split accross interleaves
Interleave, duration : 500 ms (11.99 video frames)
Interleave, preload duration : 500 ms
Language : English

Screens:
 
http://leetleech.org/images/01486671970068204783.png 
http://leetleech.org/images/48825914108513738220.png 
http://leetleech.org/images/29319085830767925683.png